<svg xmlns="http://www.w3.org/2000/svg" xmlns:xlink="http://www.w3.org/1999/xlink" width="500" zoomAndPan="magnify" viewBox="0 0 375 374.999991" height="500" preserveAspectRatio="xMidYMid meet" version="1.0"><defs><g/><clipPath id="cfd1ab37df"><path d="M 44.195312 44.195312 L 330.695312 44.195312 L 330.695312 330.695312 L 44.195312 330.695312 Z M 44.195312 44.195312 " clip-rule="nonzero"/></clipPath><clipPath id="f44dc5d97a"><path d="M 51.832031 51.832031 L 323.332031 51.832031 L 323.332031 323.332031 L 51.832031 323.332031 Z M 51.832031 51.832031 " clip-rule="nonzero"/></clipPath><clipPath id="0225daffaa"><path d="M 58.230469 58.230469 L 316.980469 58.230469 L 316.980469 316.980469 L 58.230469 316.980469 Z M 58.230469 58.230469 " clip-rule="nonzero"/></clipPath><clipPath id="5c9ed1f35c"><path d="M 88.90625 89.53125 L 284.65625 89.53125 L 284.65625 285.28125 L 88.90625 285.28125 Z M 88.90625 89.53125 " clip-rule="nonzero"/></clipPath><clipPath id="aee4b64611"><path d="M 96.6875 96.6875 L 278.1875 96.6875 L 278.1875 278.1875 L 96.6875 278.1875 Z M 96.6875 96.6875 " clip-rule="nonzero"/></clipPath><clipPath id="e376ad8c22"><path d="M 103.167969 103.167969 L 271.917969 103.167969 L 271.917969 271.917969 L 103.167969 271.917969 Z M 103.167969 103.167969 " clip-rule="nonzero"/></clipPath><clipPath id="886e69fa86"><path d="M 136.789062 120.472656 L 237.289062 120.472656 L 237.289062 254.722656 L 136.789062 254.722656 Z M 136.789062 120.472656 " clip-rule="nonzero"/></clipPath><clipPath id="d1371b4eab"><path d="M 141 120.472656 L 233 120.472656 L 233 199 L 141 199 Z M 141 120.472656 " clip-rule="nonzero"/></clipPath><clipPath id="300f816660"><path d="M 152 127 L 222 127 L 222 254.722656 L 152 254.722656 Z M 152 127 " clip-rule="nonzero"/></clipPath><clipPath id="074d91d7a2"><path d="M 67.476562 182.085938 L 78.726562 182.085938 L 78.726562 192.585938 L 67.476562 192.585938 Z M 67.476562 182.085938 " clip-rule="nonzero"/></clipPath><clipPath id="c62d80daa9"><path d="M 296.09375 182.085938 L 307.34375 182.085938 L 307.34375 192.585938 L 296.09375 192.585938 Z M 296.09375 182.085938 " clip-rule="nonzero"/></clipPath></defs><g clip-path="url(#cfd1ab37df)"><path fill="#e8adf8" d="M 187.445312 44.195312 C 108.332031 44.195312 44.195312 108.332031 44.195312 187.445312 C 44.195312 266.5625 108.332031 330.695312 187.445312 330.695312 C 266.5625 330.695312 330.695312 266.5625 330.695312 187.445312 C 330.695312 108.332031 266.5625 44.195312 187.445312 44.195312 " fill-opacity="1" fill-rule="nonzero"/></g><g clip-path="url(#f44dc5d97a)"><path fill="#fffbf5" d="M 187.582031 51.832031 C 112.609375 51.832031 51.832031 112.609375 51.832031 187.582031 C 51.832031 262.554688 112.609375 323.332031 187.582031 323.332031 C 262.554688 323.332031 323.332031 262.554688 323.332031 187.582031 C 323.332031 112.609375 262.554688 51.832031 187.582031 51.832031 " fill-opacity="1" fill-rule="nonzero"/></g><g clip-path="url(#0225daffaa)"><path fill="#b19789" d="M 187.605469 58.230469 C 116.152344 58.230469 58.230469 116.152344 58.230469 187.605469 C 58.230469 259.054688 116.152344 316.980469 187.605469 316.980469 C 259.054688 316.980469 316.980469 259.054688 316.980469 187.605469 C 316.980469 116.152344 259.054688 58.230469 187.605469 58.230469 " fill-opacity="1" fill-rule="nonzero"/></g><g clip-path="url(#5c9ed1f35c)"><path fill="#fffbf5" d="M 186.78125 89.53125 C 132.726562 89.53125 88.90625 133.351562 88.90625 187.40625 C 88.90625 241.460938 132.726562 285.28125 186.78125 285.28125 C 240.835938 285.28125 284.65625 241.460938 284.65625 187.40625 C 284.65625 133.351562 240.835938 89.53125 186.78125 89.53125 " fill-opacity="1" fill-rule="nonzero"/></g><g clip-path="url(#aee4b64611)"><path fill="#e8adf8" d="M 187.4375 96.6875 C 137.316406 96.6875 96.6875 137.316406 96.6875 187.4375 C 96.6875 237.558594 137.316406 278.1875 187.4375 278.1875 C 237.558594 278.1875 278.1875 237.558594 278.1875 187.4375 C 278.1875 137.316406 237.558594 96.6875 187.4375 96.6875 " fill-opacity="1" fill-rule="nonzero"/></g><g clip-path="url(#e376ad8c22)"><path fill="#fffbf5" d="M 187.542969 103.167969 C 140.945312 103.167969 103.167969 140.945312 103.167969 187.542969 C 103.167969 234.140625 140.945312 271.917969 187.542969 271.917969 C 234.140625 271.917969 271.917969 234.140625 271.917969 187.542969 C 271.917969 140.945312 234.140625 103.167969 187.542969 103.167969 " fill-opacity="1" fill-rule="nonzero"/></g><g clip-path="url(#886e69fa86)"><path fill="#e8adf8" d="M 237.277344 194.171875 C 237.277344 194.171875 226.558594 226.5 221.871094 249.90625 C 221.871094 249.90625 202.21875 254.363281 187.03125 254.585938 C 171.847656 254.363281 152.195312 249.90625 152.195312 249.90625 C 147.507812 226.496094 136.789062 194.171875 136.789062 194.171875 C 136.789062 194.171875 139.261719 193.226562 142.328125 192.898438 C 142.328125 192.898438 137.460938 182.582031 147.0625 177.679688 C 147.0625 177.679688 140.808594 164.75 153.316406 160.292969 C 153.316406 160.292969 145.945312 149.367188 164.035156 143.125 C 164.035156 143.125 163.363281 123.285156 187.035156 120.609375 C 187.035156 120.609375 179.203125 131.535156 190.488281 134.429688 C 190.941406 134.542969 191.417969 134.667969 191.917969 134.796875 C 192.335938 134.902344 192.765625 135.015625 193.210938 135.128906 C 193.257812 131.179688 194.777344 128.136719 197.9375 127.984375 C 204.917969 127.648438 204.089844 136.222656 204.089844 136.222656 C 204.089844 136.222656 208.84375 129.035156 214.066406 133.675781 C 216.476562 135.816406 215.667969 139.226562 213.101562 142.382812 C 219.164062 145.8125 223.460938 150.433594 222.109375 156.667969 C 221.742188 158.828125 220.757812 160.292969 220.757812 160.292969 C 233.261719 164.75 227.011719 177.679688 227.011719 177.679688 C 236.613281 182.582031 231.746094 192.898438 231.746094 192.898438 C 234.804688 193.226562 237.277344 194.171875 237.277344 194.171875 Z M 237.277344 194.171875 " fill-opacity="1" fill-rule="nonzero"/></g><g clip-path="url(#d1371b4eab)"><path fill="#ede5d8" d="M 176.085938 132.511719 C 176.085938 133.59375 175.207031 134.472656 174.121094 134.472656 C 173.035156 134.472656 172.15625 133.59375 172.15625 132.511719 C 172.15625 131.425781 173.035156 130.546875 174.121094 130.546875 C 175.207031 130.546875 176.085938 131.425781 176.085938 132.511719 Z M 190.992188 134.558594 C 172.410156 136.390625 165.351562 141.578125 164.035156 142.6875 C 164.101562 139.773438 165.433594 123.050781 187.035156 120.609375 C 187.035156 120.609375 179.203125 131.535156 190.488281 134.429688 C 190.652344 134.472656 190.820312 134.515625 190.992188 134.558594 Z M 176.742188 132.511719 C 176.742188 131.070312 175.566406 129.894531 174.121094 129.894531 C 172.675781 129.894531 171.5 131.070312 171.5 132.511719 C 171.5 133.953125 172.675781 135.125 174.121094 135.125 C 175.566406 135.125 176.742188 133.953125 176.742188 132.511719 Z M 164.035156 180.105469 C 162.949219 180.105469 162.070312 180.984375 162.070312 182.066406 C 162.070312 183.148438 162.949219 184.027344 164.035156 184.027344 C 165.117188 184.027344 166 183.148438 166 182.066406 C 166 180.984375 165.117188 180.105469 164.035156 180.105469 Z M 232.984375 187.117188 C 232.984375 187.375 232.972656 187.628906 232.957031 187.875 C 232.886719 188.976562 232.691406 189.976562 232.476562 190.792969 C 232.46875 190.8125 232.46875 190.824219 232.460938 190.839844 C 232.355469 191.246094 232.238281 191.605469 232.136719 191.90625 C 232.089844 192.046875 232.042969 192.171875 232 192.285156 C 231.855469 192.667969 231.75 192.890625 231.75 192.890625 C 227.761719 192.457031 222.785156 193.070312 220.984375 198.179688 C 220.984375 198.179688 220.089844 192.160156 212.164062 191.15625 C 204.238281 190.152344 203.398438 196.507812 203.398438 196.507812 C 203.398438 196.507812 201.722656 191.441406 194.6875 191.050781 C 187.65625 190.65625 187.039062 195.503906 187.039062 195.503906 C 187.039062 195.503906 186.429688 190.65625 179.394531 191.050781 C 172.359375 191.441406 170.683594 196.507812 170.683594 196.507812 C 170.683594 196.507812 169.84375 190.152344 161.917969 191.15625 C 153.992188 192.160156 153.097656 198.179688 153.097656 198.179688 C 151.296875 193.070312 146.316406 192.457031 142.332031 192.890625 C 142.332031 192.890625 142.300781 192.824219 142.253906 192.714844 C 142.222656 192.652344 142.191406 192.570312 142.152344 192.476562 C 142.085938 192.304688 142.003906 192.082031 141.914062 191.820312 C 141.851562 191.644531 141.792969 191.445312 141.726562 191.230469 C 141.675781 191.058594 141.628906 190.871094 141.578125 190.679688 C 141.460938 190.238281 141.355469 189.742188 141.269531 189.207031 C 141.234375 188.960938 141.199219 188.710938 141.171875 188.449219 C 141.128906 188.019531 141.097656 187.578125 141.097656 187.117188 C 141.09375 186.425781 141.148438 185.703125 141.285156 184.976562 C 141.332031 184.722656 141.386719 184.472656 141.453125 184.21875 C 141.5 184.046875 141.550781 183.875 141.605469 183.703125 C 141.664062 183.523438 141.726562 183.347656 141.796875 183.167969 C 142.097656 182.394531 142.503906 181.628906 143.0625 180.898438 C 143.367188 180.496094 143.714844 180.109375 144.105469 179.734375 C 144.300781 179.546875 144.511719 179.359375 144.730469 179.183594 C 144.953125 179 145.183594 178.824219 145.429688 178.652344 C 145.921875 178.308594 146.460938 177.980469 147.0625 177.675781 L 147.160156 177.988281 C 147.523438 177.875 175.046875 169.40625 201.769531 171.636719 C 201.785156 173.667969 202.1875 175.769531 203.078125 177.597656 C 207.933594 178.773438 213.8125 176.75 215.902344 173.976562 C 219.714844 174.972656 223.398438 176.28125 226.863281 177.972656 L 227.007812 177.679688 C 227.605469 177.984375 228.152344 178.3125 228.640625 178.65625 C 229.136719 179.003906 229.574219 179.363281 229.96875 179.738281 C 230.203125 179.960938 230.410156 180.1875 230.609375 180.417969 C 231.429688 181.359375 231.996094 182.363281 232.363281 183.378906 C 232.363281 183.386719 232.367188 183.398438 232.371094 183.40625 C 232.492188 183.75 232.589844 184.097656 232.675781 184.4375 C 232.707031 184.589844 232.742188 184.734375 232.769531 184.882812 C 232.917969 185.648438 232.984375 186.402344 232.984375 187.117188 Z M 166.652344 182.066406 C 166.652344 180.625 165.476562 179.453125 164.035156 179.453125 C 162.589844 179.453125 161.414062 180.625 161.414062 182.066406 C 161.414062 183.507812 162.589844 184.683594 164.035156 184.683594 C 165.476562 184.683594 166.652344 183.507812 166.652344 182.066406 Z M 227.007812 177.679688 L 227.015625 177.664062 C 227.011719 177.667969 227.007812 177.679688 227.007812 177.679688 Z M 146.964844 177.363281 L 147.050781 177.636719 C 146.71875 176.921875 141.175781 164.613281 153.316406 160.285156 L 153.5625 160.503906 C 153.59375 160.46875 155.820312 158.066406 160.847656 155.839844 C 163.28125 158.214844 168.019531 159.996094 172.246094 159.382812 C 173.496094 157.328125 174.109375 154.820312 174.179688 152.457031 C 184.242188 151.402344 199.40625 152.507812 220.644531 160.589844 L 220.757812 160.285156 C 220.757812 160.285156 220.757812 160.285156 220.761719 160.285156 L 220.875 159.984375 C 199.59375 151.882812 184.34375 150.753906 174.1875 151.804688 C 174.136719 147.609375 172.371094 144.0625 169.460938 144.644531 C 164.785156 145.574219 166.753906 151.109375 166.753906 151.109375 C 166.753906 151.109375 162.414062 147.140625 159.730469 151.070312 C 158.804688 152.425781 159.183594 153.953125 160.355469 155.328125 C 155.75 157.390625 153.539062 159.574219 153.136719 160 C 152.128906 158.226562 147.6875 148.765625 164.039062 143.132812 L 164.265625 143.367188 C 164.332031 143.304688 171.109375 137.019531 191.953125 135.128906 L 191.921875 134.804688 L 191.925781 134.804688 C 192.339844 134.90625 192.769531 135.019531 193.214844 135.136719 C 193.15625 139.917969 195.253906 146.023438 199.234375 149.949219 C 204.71875 149.398438 210.105469 146.066406 213.101562 142.382812 C 213.46875 142.59375 213.828125 142.804688 214.183594 143.023438 C 214.203125 143.03125 214.222656 143.046875 214.242188 143.054688 C 214.585938 143.269531 214.917969 143.484375 215.25 143.703125 C 215.273438 143.722656 215.296875 143.738281 215.320312 143.753906 C 215.648438 143.972656 215.964844 144.199219 216.277344 144.429688 C 216.292969 144.4375 216.3125 144.453125 216.328125 144.464844 C 217.289062 145.179688 218.164062 145.933594 218.929688 146.730469 C 218.949219 146.75 218.96875 146.769531 218.988281 146.792969 C 219.226562 147.039062 219.453125 147.296875 219.671875 147.554688 C 219.699219 147.585938 219.726562 147.621094 219.75 147.652344 C 219.960938 147.90625 220.160156 148.167969 220.347656 148.433594 C 220.371094 148.464844 220.394531 148.5 220.421875 148.535156 C 220.605469 148.804688 220.78125 149.074219 220.945312 149.351562 C 220.960938 149.378906 220.976562 149.40625 220.992188 149.433594 C 221.15625 149.71875 221.3125 150.011719 221.449219 150.308594 C 221.449219 150.316406 221.453125 150.320312 221.457031 150.324219 C 221.59375 150.625 221.714844 150.929688 221.820312 151.238281 C 221.828125 151.257812 221.835938 151.28125 221.84375 151.300781 C 221.949219 151.597656 222.03125 151.902344 222.101562 152.210938 C 222.109375 152.253906 222.121094 152.296875 222.132812 152.339844 C 222.195312 152.636719 222.246094 152.941406 222.285156 153.25 C 222.292969 153.300781 222.300781 153.355469 222.304688 153.40625 C 222.335938 153.714844 222.351562 154.027344 222.355469 154.34375 C 222.355469 154.394531 222.351562 154.445312 222.351562 154.496094 C 222.351562 154.824219 222.332031 155.148438 222.300781 155.484375 C 222.296875 155.523438 222.289062 155.558594 222.285156 155.597656 C 222.242188 155.949219 222.1875 156.308594 222.109375 156.671875 C 221.75 158.796875 220.792969 160.238281 220.761719 160.285156 C 232.144531 164.347656 227.980469 175.425781 227.144531 177.375 C 223.707031 175.699219 220.054688 174.394531 216.277344 173.394531 C 216.78125 172.457031 216.855469 171.457031 216.316406 170.480469 C 214.011719 166.316406 209.320312 169.863281 209.320312 169.863281 C 209.320312 169.863281 211.796875 164.539062 207.230469 163.175781 C 204.136719 162.253906 201.9375 166.316406 201.78125 170.980469 C 174.925781 168.761719 147.332031 177.25 146.964844 177.363281 Z M 186.707031 160.289062 C 186.707031 161.730469 187.882812 162.902344 189.328125 162.902344 C 190.773438 162.902344 191.949219 161.730469 191.949219 160.289062 C 191.949219 158.847656 190.773438 157.671875 189.328125 157.671875 C 187.882812 157.671875 186.707031 158.847656 186.707031 160.289062 Z M 147.050781 177.636719 L 147.0625 177.671875 C 147.0625 177.671875 147.0625 177.671875 147.066406 177.671875 C 147.066406 177.671875 147.0625 177.660156 147.050781 177.636719 Z M 189.328125 162.253906 C 190.414062 162.253906 191.292969 161.375 191.292969 160.292969 C 191.292969 159.207031 190.414062 158.328125 189.328125 158.328125 C 188.242188 158.328125 187.363281 159.207031 187.363281 160.292969 C 187.363281 161.371094 188.242188 162.253906 189.328125 162.253906 Z M 189.328125 162.253906 " fill-opacity="1" fill-rule="nonzero"/></g><g clip-path="url(#300f816660)"><path fill="#b19789" d="M 213.097656 142.382812 C 213.898438 141.398438 214.527344 140.386719 214.941406 139.402344 C 214.941406 139.398438 214.945312 139.398438 214.945312 139.394531 C 215.011719 139.234375 215.066406 139.078125 215.125 138.917969 C 215.140625 138.871094 215.160156 138.824219 215.175781 138.777344 C 215.21875 138.640625 215.257812 138.503906 215.292969 138.367188 C 215.3125 138.300781 215.332031 138.230469 215.347656 138.164062 C 215.375 138.039062 215.398438 137.921875 215.417969 137.800781 C 215.433594 137.71875 215.445312 137.640625 215.457031 137.5625 C 215.46875 137.449219 215.480469 137.339844 215.488281 137.230469 C 215.496094 137.144531 215.5 137.058594 215.503906 136.972656 C 215.503906 136.871094 215.503906 136.769531 215.5 136.664062 C 215.496094 136.574219 215.488281 136.488281 215.476562 136.394531 C 215.46875 136.300781 215.457031 136.207031 215.441406 136.113281 C 215.425781 136.019531 215.402344 135.929688 215.382812 135.839844 C 215.359375 135.753906 215.339844 135.664062 215.316406 135.582031 C 215.285156 135.484375 215.246094 135.394531 215.210938 135.300781 C 215.183594 135.222656 215.152344 135.144531 215.117188 135.066406 C 215.074219 134.96875 215.015625 134.875 214.960938 134.777344 C 214.925781 134.710938 214.890625 134.640625 214.847656 134.574219 C 214.78125 134.46875 214.699219 134.367188 214.621094 134.269531 C 214.578125 134.214844 214.542969 134.160156 214.496094 134.109375 C 214.367188 133.960938 214.226562 133.816406 214.066406 133.675781 C 208.84375 129.035156 204.089844 136.222656 204.089844 136.222656 C 204.089844 136.222656 204.917969 127.648438 197.9375 127.984375 C 197.726562 127.996094 197.527344 128.019531 197.332031 128.054688 C 197.265625 128.066406 197.203125 128.085938 197.140625 128.097656 C 197.015625 128.125 196.890625 128.15625 196.769531 128.191406 C 196.695312 128.21875 196.625 128.246094 196.554688 128.277344 C 196.453125 128.316406 196.351562 128.355469 196.257812 128.402344 C 196.179688 128.441406 196.109375 128.480469 196.035156 128.519531 C 195.949219 128.570312 195.863281 128.617188 195.785156 128.671875 C 195.707031 128.722656 195.636719 128.773438 195.566406 128.828125 C 195.492188 128.882812 195.421875 128.941406 195.355469 129.003906 C 195.28125 129.0625 195.210938 129.132812 195.144531 129.199219 C 195.085938 129.257812 195.027344 129.320312 194.96875 129.382812 C 194.902344 129.460938 194.832031 129.539062 194.765625 129.621094 C 194.71875 129.679688 194.675781 129.746094 194.632812 129.804688 C 194.5625 129.902344 194.496094 130 194.429688 130.101562 C 194.402344 130.148438 194.371094 130.203125 194.34375 130.253906 C 194.269531 130.378906 194.199219 130.5 194.136719 130.632812 C 194.132812 130.636719 194.128906 130.640625 194.128906 130.648438 C 193.621094 131.6875 193.324219 132.972656 193.238281 134.402344 C 193.238281 134.402344 193.238281 134.402344 193.238281 134.40625 C 193.226562 134.644531 193.214844 134.886719 193.210938 135.132812 C 193.15625 139.914062 195.253906 146.019531 199.234375 149.949219 C 204.710938 149.394531 210.101562 146.0625 213.097656 142.382812 Z M 213.804688 136.953125 C 213.984375 137.46875 213.867188 138.105469 213.675781 138.597656 C 213.546875 138.929688 213.238281 139.15625 212.867188 139.054688 C 212.550781 138.96875 212.285156 138.582031 212.410156 138.25 C 212.507812 137.996094 212.574219 137.757812 212.570312 137.484375 C 212.570312 137.480469 212.5625 137.414062 212.558594 137.382812 C 212.558594 137.378906 212.558594 137.375 212.558594 137.375 C 212.550781 137.347656 212.542969 137.324219 212.535156 137.296875 C 212.421875 136.964844 212.667969 136.582031 212.996094 136.492188 C 213.355469 136.398438 213.691406 136.621094 213.804688 136.953125 Z M 210.871094 134.730469 C 210.519531 134.660156 210.320312 134.25 210.410156 133.925781 C 210.507812 133.570312 210.871094 133.398438 211.21875 133.464844 C 211.964844 133.617188 212.628906 134.097656 213.066406 134.703125 C 213.273438 134.992188 213.117188 135.433594 212.832031 135.597656 C 212.507812 135.789062 212.140625 135.652344 211.933594 135.363281 C 211.660156 134.984375 211.246094 134.808594 210.871094 134.730469 Z M 203.078125 177.597656 C 202.1875 175.769531 201.785156 173.667969 201.769531 171.636719 C 201.765625 171.417969 201.769531 171.203125 201.777344 170.984375 C 201.933594 166.320312 204.132812 162.253906 207.226562 163.175781 C 211.796875 164.539062 209.316406 169.867188 209.316406 169.867188 C 209.316406 169.867188 214.007812 166.316406 216.3125 170.484375 C 216.851562 171.460938 216.78125 172.457031 216.273438 173.398438 C 216.164062 173.59375 216.042969 173.785156 215.902344 173.976562 C 213.8125 176.75 207.933594 178.773438 203.078125 177.597656 Z M 153.414062 198.132812 L 161.992188 251.722656 L 161.667969 251.773438 C 161.550781 251.75 161.4375 251.730469 161.324219 251.710938 L 152.769531 198.238281 Z M 186.707031 195.511719 L 187.363281 195.511719 L 187.363281 254.578125 C 187.253906 254.582031 187.144531 254.582031 187.035156 254.585938 C 186.929688 254.582031 186.816406 254.582031 186.707031 254.578125 Z M 171.003906 196.492188 L 174.449219 253.613281 L 174.109375 253.632812 C 174.003906 253.621094 173.894531 253.609375 173.792969 253.597656 L 170.351562 196.535156 Z M 221.304688 198.234375 L 212.746094 251.707031 C 212.632812 251.730469 212.519531 251.75 212.40625 251.769531 L 212.078125 251.71875 L 220.65625 198.132812 Z M 203.066406 196.492188 L 203.722656 196.535156 L 200.28125 253.597656 C 200.175781 253.609375 200.066406 253.621094 199.964844 253.632812 L 199.621094 253.613281 Z M 203.066406 196.492188 " fill-opacity="1" fill-rule="nonzero"/></g><path fill="#5b0116" d="M 201.777344 170.980469 C 201.769531 171.199219 201.765625 171.417969 201.769531 171.632812 C 175.046875 169.402344 147.523438 177.875 147.15625 177.988281 L 146.960938 177.363281 C 147.328125 177.25 174.921875 168.761719 201.777344 170.980469 Z M 216.273438 173.398438 C 216.167969 173.59375 216.046875 173.785156 215.902344 173.976562 C 219.714844 174.972656 223.402344 176.28125 226.863281 177.972656 L 227.015625 177.664062 C 227.027344 177.636719 227.070312 177.542969 227.140625 177.378906 C 223.707031 175.699219 220.050781 174.394531 216.273438 173.398438 Z M 153.558594 160.511719 C 153.585938 160.476562 155.8125 158.074219 160.84375 155.847656 C 160.667969 155.675781 160.503906 155.503906 160.355469 155.332031 C 155.746094 157.394531 153.535156 159.578125 153.136719 160 C 153.246094 160.1875 153.3125 160.292969 153.3125 160.292969 Z M 174.1875 151.804688 C 174.1875 152.023438 174.1875 152.242188 174.179688 152.464844 C 184.242188 151.40625 199.40625 152.511719 220.644531 160.597656 L 220.757812 160.292969 L 220.875 159.984375 C 199.59375 151.882812 184.339844 150.753906 174.1875 151.804688 Z M 164.261719 143.363281 C 164.328125 143.296875 171.105469 137.015625 191.949219 135.125 L 191.917969 134.796875 C 191.597656 134.714844 191.292969 134.636719 190.992188 134.558594 C 172.410156 136.390625 165.347656 141.578125 164.035156 142.6875 C 164.027344 142.964844 164.035156 143.125 164.035156 143.125 Z M 164.261719 143.363281 " fill-opacity="1" fill-rule="nonzero"/><path fill="#f0d9c0" d="M 211.933594 135.367188 C 211.660156 134.984375 211.246094 134.804688 210.871094 134.730469 C 210.519531 134.660156 210.320312 134.25 210.410156 133.929688 C 210.507812 133.570312 210.871094 133.402344 211.21875 133.472656 C 211.964844 133.621094 212.628906 134.101562 213.066406 134.710938 C 213.273438 134.996094 213.117188 135.4375 212.832031 135.605469 C 212.507812 135.796875 212.140625 135.65625 211.933594 135.367188 Z M 213.8125 136.957031 C 213.695312 136.621094 213.359375 136.402344 213.003906 136.496094 C 212.671875 136.585938 212.421875 136.964844 212.542969 137.300781 C 212.550781 137.324219 212.554688 137.351562 212.5625 137.378906 C 212.5625 137.378906 212.5625 137.382812 212.566406 137.382812 C 212.570312 137.414062 212.574219 137.484375 212.578125 137.484375 C 212.578125 137.757812 212.511719 137.996094 212.414062 138.253906 C 212.289062 138.582031 212.554688 138.96875 212.875 139.058594 C 213.246094 139.160156 213.554688 138.933594 213.683594 138.601562 C 213.871094 138.109375 213.992188 137.472656 213.8125 136.957031 Z M 213.8125 136.957031 " fill-opacity="1" fill-rule="nonzero"/><g fill="#ffffff" fill-opacity="1"><g transform="translate(92.222802, 140.745219)"><g><path d="M 3.203125 -11.671875 L 0.046875 -6.390625 L 2.265625 -3.78125 L 0.328125 -0.53125 L -10.65625 -13.578125 L -8.203125 -17.703125 L 8.484375 -14.21875 L 6.546875 -10.96875 Z M -0.125 -12.390625 L -6.125 -13.65625 L -2.15625 -8.984375 Z M -0.125 -12.390625 "/></g></g></g><g fill="#ffffff" fill-opacity="1"><g transform="translate(109.321015, 115.873608)"><g><path d="M 3.078125 -13.9375 C 3.921875 -14.332031 4.734375 -14.476562 5.515625 -14.375 C 6.304688 -14.269531 7.007812 -13.890625 7.625 -13.234375 C 8.65625 -12.140625 9.066406 -10.992188 8.859375 -9.796875 C 8.648438 -8.609375 7.726562 -7.242188 6.09375 -5.703125 L 1.234375 -1.15625 L -9.640625 -12.78125 L -4.78125 -17.328125 C -3.289062 -18.722656 -1.984375 -19.445312 -0.859375 -19.5 C 0.253906 -19.5625 1.285156 -19.085938 2.234375 -18.078125 C 2.828125 -17.441406 3.195312 -16.785156 3.34375 -16.109375 C 3.488281 -15.441406 3.398438 -14.71875 3.078125 -13.9375 Z M -2.484375 -10.640625 L -0.375 -12.609375 C 0.5 -13.429688 0.546875 -14.265625 -0.234375 -15.109375 C -0.660156 -15.554688 -1.070312 -15.78125 -1.46875 -15.78125 C -1.863281 -15.789062 -2.289062 -15.578125 -2.75 -15.140625 L -4.859375 -13.171875 Z M 4.625 -10.84375 C 4.21875 -11.28125 3.769531 -11.457031 3.28125 -11.375 C 2.789062 -11.300781 2.25 -10.988281 1.65625 -10.4375 L -0.453125 -8.46875 L 1.9375 -5.90625 L 4.046875 -7.875 C 4.703125 -8.488281 5.066406 -9.023438 5.140625 -9.484375 C 5.222656 -9.941406 5.050781 -10.394531 4.625 -10.84375 Z M 4.625 -10.84375 "/></g></g></g><g fill="#ffffff" fill-opacity="1"><g transform="translate(131.383271, 97.568674)"><g><path d="M 7.828125 -3.609375 C 5.765625 -2.554688 3.957031 -2.273438 2.40625 -2.765625 C 0.863281 -3.265625 -0.382812 -4.457031 -1.34375 -6.34375 L -5.75 -14.9375 L -2.390625 -16.65625 L 2.015625 -8.0625 C 2.523438 -7.050781 3.144531 -6.40625 3.875 -6.125 C 4.613281 -5.851562 5.453125 -5.957031 6.390625 -6.4375 C 7.328125 -6.914062 7.894531 -7.53125 8.09375 -8.28125 C 8.300781 -9.039062 8.148438 -9.925781 7.640625 -10.9375 L 3.234375 -19.53125 L 6.59375 -21.25 L 11 -12.65625 C 11.957031 -10.769531 12.179688 -9.050781 11.671875 -7.5 C 11.171875 -5.957031 9.890625 -4.660156 7.828125 -3.609375 Z M 7.828125 -3.609375 "/></g></g></g><g fill="#ffffff" fill-opacity="1"><g transform="translate(159.382273, 85.769928)"><g/></g></g><g fill="#ffffff" fill-opacity="1"><g transform="translate(176.986067, 82.36271)"><g><path d="M 7.046875 0.171875 C 5.929688 0.203125 4.894531 0.140625 3.9375 -0.015625 C 2.976562 -0.179688 2.050781 -0.46875 1.15625 -0.875 L 1.0625 -4.265625 C 2.863281 -3.378906 4.828125 -2.960938 6.953125 -3.015625 C 7.785156 -3.035156 8.390625 -3.191406 8.765625 -3.484375 C 9.140625 -3.773438 9.316406 -4.15625 9.296875 -4.625 C 9.285156 -5.082031 9.109375 -5.421875 8.765625 -5.640625 C 8.421875 -5.867188 7.800781 -6.085938 6.90625 -6.296875 L 5.484375 -6.671875 C 4.628906 -6.878906 3.890625 -7.128906 3.265625 -7.421875 C 2.640625 -7.722656 2.097656 -8.179688 1.640625 -8.796875 C 1.191406 -9.421875 0.953125 -10.226562 0.921875 -11.21875 C 0.878906 -12.863281 1.347656 -14.125 2.328125 -15 C 3.304688 -15.882812 4.707031 -16.351562 6.53125 -16.40625 C 7.625 -16.4375 8.585938 -16.363281 9.421875 -16.1875 C 10.253906 -16.007812 11.109375 -15.734375 11.984375 -15.359375 L 12.078125 -12.078125 C 10.453125 -12.878906 8.628906 -13.253906 6.609375 -13.203125 C 5.867188 -13.179688 5.359375 -13.039062 5.078125 -12.78125 C 4.796875 -12.53125 4.660156 -12.164062 4.671875 -11.6875 C 4.679688 -11.363281 4.753906 -11.109375 4.890625 -10.921875 C 5.035156 -10.734375 5.253906 -10.582031 5.546875 -10.46875 C 5.847656 -10.351562 6.296875 -10.21875 6.890625 -10.0625 L 8.34375 -9.703125 C 9.25 -9.472656 10.03125 -9.195312 10.6875 -8.875 C 11.34375 -8.5625 11.890625 -8.082031 12.328125 -7.4375 C 12.773438 -6.789062 13.015625 -5.953125 13.046875 -4.921875 C 13.066406 -3.390625 12.546875 -2.171875 11.484375 -1.265625 C 10.429688 -0.359375 8.953125 0.117188 7.046875 0.171875 Z M 7.046875 0.171875 "/></g></g></g><g fill="#ffffff" fill-opacity="1"><g transform="translate(204.105573, 83.193518)"><g><path d="M 18.921875 -11.671875 L 15.046875 3.765625 L 11.375 2.859375 L 12.921875 -3.34375 L 6.84375 -4.875 L 5.296875 1.328125 L 1.640625 0.40625 L 5.515625 -15.03125 L 9.171875 -14.109375 L 7.640625 -8.015625 L 13.71875 -6.484375 L 15.25 -12.578125 Z M 18.921875 -11.671875 "/></g></g></g><g fill="#ffffff" fill-opacity="1"><g transform="translate(232.856057, 92.289048)"><g><path d="M 7.484375 4.859375 C 5.972656 3.960938 4.867188 2.882812 4.171875 1.625 C 3.484375 0.375 3.191406 -0.941406 3.296875 -2.328125 C 3.410156 -3.710938 3.867188 -5.085938 4.671875 -6.453125 C 5.460938 -7.785156 6.441406 -8.832031 7.609375 -9.59375 C 8.773438 -10.351562 10.078125 -10.734375 11.515625 -10.734375 C 12.953125 -10.742188 14.425781 -10.300781 15.9375 -9.40625 C 17.4375 -8.519531 18.523438 -7.441406 19.203125 -6.171875 C 19.890625 -4.910156 20.179688 -3.582031 20.078125 -2.1875 C 19.984375 -0.789062 19.539062 0.566406 18.75 1.890625 C 17.945312 3.253906 16.957031 4.3125 15.78125 5.0625 C 14.601562 5.820312 13.300781 6.203125 11.875 6.203125 C 10.457031 6.203125 8.992188 5.753906 7.484375 4.859375 Z M 9.109375 2.109375 C 10.285156 2.804688 11.441406 2.9375 12.578125 2.5 C 13.722656 2.070312 14.6875 1.195312 15.46875 -0.125 C 15.96875 -0.957031 16.265625 -1.785156 16.359375 -2.609375 C 16.453125 -3.429688 16.328125 -4.191406 15.984375 -4.890625 C 15.640625 -5.597656 15.082031 -6.179688 14.3125 -6.640625 C 13.125 -7.347656 11.96875 -7.488281 10.84375 -7.0625 C 9.71875 -6.644531 8.769531 -5.785156 8 -4.484375 C 7.21875 -3.160156 6.90625 -1.90625 7.0625 -0.71875 C 7.226562 0.457031 7.910156 1.398438 9.109375 2.109375 Z M 9.109375 2.109375 "/></g></g></g><g fill="#ffffff" fill-opacity="1"><g transform="translate(258.244073, 109.807745)"><g><path d="M 10.15625 5.828125 L 7.828125 8.078125 L 1.171875 1.21875 L 12.609375 -9.859375 L 15.234375 -7.15625 L 6.125 1.671875 Z M 10.15625 5.828125 "/></g></g></g><g fill="#ffffff" fill-opacity="1"><g transform="translate(274.657094, 128.979)"><g><path d="M 8.765625 9.15625 L 6.140625 10.671875 L 0.84375 1.46875 L 14.640625 -6.46875 L 19.875 2.640625 L 17.25 4.15625 L 13.890625 -1.6875 L 10.96875 -0.015625 L 13.8125 4.921875 L 11.1875 6.4375 L 8.34375 1.5 L 5.34375 3.21875 Z M 8.765625 9.15625 "/></g></g></g><g fill="#ffffff" fill-opacity="1"><g transform="translate(73.877188, 238.619994)"><g><path d="M 8.5625 3.453125 L 7.6875 1.921875 L 2.671875 4.75 L 0.828125 1.46875 L 14.703125 -6.34375 L 17.859375 -0.734375 C 19.847656 2.796875 19.359375 5.394531 16.390625 7.0625 C 14.285156 8.25 12.414062 8.09375 10.78125 6.59375 L 7.28125 12.921875 L 5.21875 9.25 Z M 10.46875 0.359375 L 11.78125 2.6875 C 12.519531 3.988281 13.429688 4.332031 14.515625 3.71875 C 15.085938 3.394531 15.414062 3 15.5 2.53125 C 15.59375 2.0625 15.445312 1.492188 15.0625 0.828125 L 13.75 -1.5 Z M 10.46875 0.359375 "/></g></g></g><g fill="#ffffff" fill-opacity="1"><g transform="translate(90.736642, 264.562789)"><g><path d="M 10.625 6.9375 L 8.40625 9 L 1.15625 1.234375 L 12.796875 -9.640625 L 19.96875 -1.953125 L 17.75 0.125 L 13.140625 -4.8125 L 10.671875 -2.515625 L 14.5625 1.65625 L 12.34375 3.734375 L 8.453125 -0.4375 L 5.9375 1.921875 Z M 10.625 6.9375 "/></g></g></g><g fill="#ffffff" fill-opacity="1"><g transform="translate(111.72595, 284.48582)"><g><path d="M 15.5625 -8.78125 C 17.25 -7.664062 18.269531 -6.457031 18.625 -5.15625 C 18.976562 -3.851562 18.671875 -2.46875 17.703125 -1 C 16.742188 0.4375 15.59375 1.25 14.25 1.4375 C 12.90625 1.625 11.390625 1.160156 9.703125 0.046875 L 7.484375 -1.421875 L 4.546875 3.015625 L 1.40625 0.9375 L 10.203125 -12.328125 Z M 11.484375 -2.625 C 12.117188 -2.195312 12.679688 -2.019531 13.171875 -2.09375 C 13.660156 -2.175781 14.101562 -2.515625 14.5 -3.109375 C 14.90625 -3.722656 15.050781 -4.269531 14.9375 -4.75 C 14.820312 -5.226562 14.441406 -5.679688 13.796875 -6.109375 L 11.578125 -7.578125 L 9.265625 -4.09375 Z M 11.484375 -2.625 "/></g></g></g><g fill="#ffffff" fill-opacity="1"><g transform="translate(137.726729, 299.624252)"><g><path d="M 8.3125 3.265625 C 6.644531 2.691406 5.347656 1.859375 4.421875 0.765625 C 3.492188 -0.328125 2.941406 -1.5625 2.765625 -2.9375 C 2.597656 -4.320312 2.769531 -5.765625 3.28125 -7.265625 C 3.789062 -8.734375 4.539062 -9.953125 5.53125 -10.921875 C 6.519531 -11.898438 7.71875 -12.535156 9.125 -12.828125 C 10.539062 -13.117188 12.082031 -12.976562 13.75 -12.40625 C 15.382812 -11.832031 16.660156 -10.992188 17.578125 -9.890625 C 18.492188 -8.796875 19.046875 -7.554688 19.234375 -6.171875 C 19.421875 -4.785156 19.257812 -3.363281 18.75 -1.90625 C 18.238281 -0.40625 17.476562 0.828125 16.46875 1.796875 C 15.46875 2.773438 14.269531 3.40625 12.875 3.6875 C 11.476562 3.976562 9.957031 3.835938 8.3125 3.265625 Z M 9.359375 0.25 C 10.640625 0.695312 11.789062 0.59375 12.8125 -0.0625 C 13.84375 -0.71875 14.613281 -1.773438 15.125 -3.234375 C 15.4375 -4.148438 15.554688 -5.019531 15.484375 -5.84375 C 15.421875 -6.664062 15.148438 -7.382812 14.671875 -8 C 14.203125 -8.625 13.546875 -9.082031 12.703125 -9.375 C 11.390625 -9.832031 10.222656 -9.738281 9.203125 -9.09375 C 8.191406 -8.457031 7.4375 -7.425781 6.9375 -6 C 6.4375 -4.539062 6.382812 -3.25 6.78125 -2.125 C 7.175781 -1 8.035156 -0.207031 9.359375 0.25 Z M 9.359375 0.25 "/></g></g></g><g fill="#ffffff" fill-opacity="1"><g transform="translate(169.789581, 308.447861)"><g><path d="M 6.96875 0.953125 C 5.863281 0.859375 4.84375 0.675781 3.90625 0.40625 C 2.96875 0.132812 2.082031 -0.25 1.25 -0.75 L 1.53125 -4.125 C 3.21875 -3.03125 5.117188 -2.394531 7.234375 -2.21875 C 8.066406 -2.15625 8.6875 -2.242188 9.09375 -2.484375 C 9.5 -2.734375 9.71875 -3.09375 9.75 -3.5625 C 9.789062 -4.019531 9.648438 -4.378906 9.328125 -4.640625 C 9.015625 -4.898438 8.425781 -5.1875 7.5625 -5.5 L 6.1875 -6.03125 C 5.363281 -6.3125 4.65625 -6.632812 4.0625 -7 C 3.476562 -7.375 2.992188 -7.894531 2.609375 -8.5625 C 2.234375 -9.226562 2.085938 -10.050781 2.171875 -11.03125 C 2.304688 -12.675781 2.90625 -13.878906 3.96875 -14.640625 C 5.039062 -15.410156 6.484375 -15.722656 8.296875 -15.578125 C 9.390625 -15.484375 10.335938 -15.300781 11.140625 -15.03125 C 11.953125 -14.757812 12.773438 -14.394531 13.609375 -13.9375 L 13.328125 -10.65625 C 11.816406 -11.632812 10.050781 -12.210938 8.03125 -12.390625 C 7.300781 -12.453125 6.78125 -12.367188 6.46875 -12.140625 C 6.15625 -11.910156 5.976562 -11.554688 5.9375 -11.078125 C 5.90625 -10.765625 5.945312 -10.507812 6.0625 -10.3125 C 6.1875 -10.113281 6.390625 -9.9375 6.671875 -9.78125 C 6.960938 -9.632812 7.390625 -9.457031 7.953125 -9.25 L 9.375 -8.71875 C 10.25 -8.394531 10.988281 -8.035156 11.59375 -7.640625 C 12.207031 -7.242188 12.703125 -6.703125 13.078125 -6.015625 C 13.453125 -5.328125 13.59375 -4.46875 13.5 -3.4375 C 13.351562 -1.914062 12.703125 -0.765625 11.546875 0.015625 C 10.398438 0.796875 8.875 1.109375 6.96875 0.953125 Z M 6.96875 0.953125 "/></g></g></g><g fill="#ffffff" fill-opacity="1"><g transform="translate(199.243808, 309.119777)"><g><path d="M 11.25 -14.546875 L 6.96875 -13.890625 L 8.875 -1.34375 L 5.125 -0.78125 L 3.21875 -13.328125 L -1.078125 -12.671875 L -1.5625 -15.859375 L 10.765625 -17.734375 Z M 11.25 -14.546875 "/></g></g></g><g fill="#ffffff" fill-opacity="1"><g transform="translate(228.093631, 302.903909)"><g><path d="M 10.296875 -7.40625 L 11.421875 -4.59375 L 1.5625 -0.625 L -4.390625 -15.390625 L 5.359375 -19.328125 L 6.5 -16.515625 L 0.25 -13.984375 L 1.515625 -10.859375 L 6.796875 -13 L 7.921875 -10.1875 L 2.640625 -8.046875 L 3.9375 -4.84375 Z M 10.296875 -7.40625 "/></g></g></g><g fill="#ffffff" fill-opacity="1"><g transform="translate(254.271415, 290.511284)"><g><path d="M 2.53125 -8.875 L 1.09375 -7.84375 L 4.4375 -3.171875 L 1.375 -0.984375 L -7.890625 -13.9375 L -2.65625 -17.6875 C 0.632812 -20.039062 3.269531 -19.832031 5.25 -17.0625 C 6.65625 -15.09375 6.703125 -13.210938 5.390625 -11.421875 L 12.0625 -8.625 L 8.640625 -6.1875 Z M -0.765625 -10.453125 L 1.40625 -12.015625 C 2.625 -12.878906 2.867188 -13.816406 2.140625 -14.828125 C 1.765625 -15.359375 1.335938 -15.644531 0.859375 -15.6875 C 0.378906 -15.726562 -0.171875 -15.523438 -0.796875 -15.078125 L -2.96875 -13.515625 Z M -0.765625 -10.453125 "/></g></g></g><g fill="#ffffff" fill-opacity="1"><g transform="translate(278.067286, 270.962822)"><g><path d="M 1.140625 -1.25 Z M -10.640625 -11.96875 L -8.109375 -14.75 L 3.671875 -4.03125 L 1.140625 -1.25 Z M -12.78125 -16.796875 L -9.984375 -19.875 L -9.328125 -15.828125 L -11.796875 -13.125 Z M -12.78125 -16.796875 "/></g></g></g><g fill="#ffffff" fill-opacity="1"><g transform="translate(292.338202, 253.603601)"><g><path d="M 2.984375 -11.734375 L -0.078125 -6.390625 L 2.1875 -3.828125 L 0.3125 -0.546875 L -10.90625 -13.375 L -8.53125 -17.53125 L 8.234375 -14.375 L 6.34375 -11.09375 Z M -0.359375 -12.40625 L -6.375 -13.546875 L -2.328125 -8.953125 Z M -0.359375 -12.40625 "/></g></g></g><g clip-path="url(#074d91d7a2)"><path fill="#fffbf5" d="M 73.101562 182.085938 C 70 182.085938 67.480469 184.4375 67.480469 187.335938 C 67.480469 190.238281 70 192.585938 73.101562 192.585938 C 76.207031 192.585938 78.722656 190.238281 78.722656 187.335938 C 78.722656 184.4375 76.207031 182.085938 73.101562 182.085938 " fill-opacity="1" fill-rule="nonzero"/></g><g clip-path="url(#c62d80daa9)"><path fill="#fffbf5" d="M 301.71875 182.085938 C 298.613281 182.085938 296.097656 184.4375 296.097656 187.335938 C 296.097656 190.238281 298.613281 192.585938 301.71875 192.585938 C 304.824219 192.585938 307.339844 190.238281 307.339844 187.335938 C 307.339844 184.4375 304.824219 182.085938 301.71875 182.085938 " fill-opacity="1" fill-rule="nonzero"/></g></svg>